<svg width="176" height="39" viewBox="0 0 176 39" fill="none" xmlns="http://www.w3.org/2000/svg">
<path d="M24.2912 3.91138V34.9114H18.9444V22.0588C18.9444 19.0116 19.1595 15.9493 19.5897 12.872L14.4272 26.9012H9.8179L4.60934 12.872C5.07028 15.6778 5.30074 18.7401 5.30074 22.0588V34.9114H0V3.91138H5.89996L12.1226 21.1085L18.3452 3.91138H24.2912Z" fill="url(#paint0_linear_60_39068)"/>
<path d="M29.2585 3.91138H44.4232V8.6632H34.7897V16.8544H43.1326V21.6063H34.7897V30.1596H44.4232V34.9114H29.2585V3.91138Z" fill="url(#paint1_linear_60_39068)"/>
<path d="M60.4688 11.0165C60.4688 9.29678 59.5162 8.43692 57.611 8.43692H53.7852V30.2048H57.611C59.5162 30.2048 60.4688 29.2394 60.4688 27.3085V11.0165ZM48.254 3.91138H58.3024C60.7607 3.91138 62.6505 4.51478 63.9719 5.7216C65.324 6.89824 66 8.60286 66 10.8355V27.7158C66 32.5128 63.5263 34.9114 58.579 34.9114H48.254V3.91138Z" fill="url(#paint2_linear_60_39068)"/>
<path fill-rule="evenodd" clip-rule="evenodd" d="M69.7871 9.18196L76.6282 21.3924C77.6656 22.2083 78.9215 22.6986 80.2373 22.8013C81.5531 22.904 82.8698 22.6145 84.0212 21.9694C85.1726 21.3242 86.1071 20.3524 86.7065 19.1766C87.306 18.0008 87.5437 16.6737 87.3894 15.363L80.5474 3.15251C80.1515 2.44598 79.6203 1.82434 78.9842 1.32309C78.348 0.821842 77.6194 0.450799 76.8399 0.231147C76.0603 0.0114951 75.2452 -0.0524622 74.4409 0.0429222C73.6366 0.138307 72.859 0.391168 72.1525 0.787067C71.446 1.18297 70.8243 1.71415 70.3231 2.35029C69.8218 2.98644 69.4508 3.71508 69.2311 4.49462C69.0115 5.27415 68.9475 6.08932 69.0429 6.89358C69.1383 7.69784 69.3912 8.47543 69.7871 9.18196Z" fill="url(#paint3_linear_60_39068)"/>
<mask id="mask0_60_39068" style="mask-type:luminance" maskUnits="userSpaceOnUse" x="69" y="0" width="19" height="23">
<path d="M69.7871 9.18196L76.6282 21.3924C77.6656 22.2084 78.9215 22.6986 80.2373 22.8013C81.5531 22.904 82.8698 22.6145 84.0212 21.9694C85.1726 21.3242 86.1071 20.3524 86.7065 19.1766C87.306 18.0008 87.5437 16.6737 87.3894 15.363L80.5474 3.15251C80.1515 2.44598 79.6203 1.82434 78.9842 1.32309C78.348 0.821842 77.6194 0.450799 76.8399 0.231147C76.0603 0.0114951 75.2452 -0.0524622 74.4409 0.0429222C73.6366 0.138307 72.859 0.391168 72.1525 0.787067C71.446 1.18297 70.8243 1.71415 70.3231 2.35029C69.8218 2.98644 69.4508 3.71508 69.2311 4.49462C69.0115 5.27415 68.9475 6.08932 69.0429 6.89358C69.1383 7.69784 69.3912 8.47543 69.7871 9.18196Z" fill="white"/>
</mask>
<g mask="url(#mask0_60_39068)">
<path fill-rule="evenodd" clip-rule="evenodd" d="M71.7111 3.31372C72.1465 4.47903 72.3564 5.28464 72.9765 6.31146C74.5587 8.92832 80.8076 19.2674 91.7233 37.3288C89.071 37.6011 87.198 36.8948 86.1041 35.2098L70.3716 7.37748C69.6748 5.55898 70.1213 4.20439 71.7111 3.31372Z" fill="url(#paint4_linear_60_39068)"/>
</g>
<path fill-rule="evenodd" clip-rule="evenodd" d="M84.0216 21.9688C82.8704 22.6139 81.5538 22.9034 80.2382 22.801C78.9225 22.6985 77.6667 22.2086 76.6292 21.3931L84.6295 35.6703C85.4291 37.0972 86.7627 38.1481 88.3371 38.5917C89.9114 39.0353 91.5975 38.8353 93.0244 38.0357C94.4513 37.2362 95.5022 35.9025 95.9458 34.3282C96.3894 32.7538 96.1894 31.0677 95.3899 29.6408L87.3895 15.3628C87.5433 16.6734 87.3055 18.0003 86.7061 19.1759C86.1068 20.3516 85.1726 21.3234 84.0216 21.9688Z" fill="url(#paint5_linear_60_39068)"/>
<mask id="mask1_60_39068" style="mask-type:luminance" maskUnits="userSpaceOnUse" x="76" y="15" width="21" height="24">
<path d="M84.0216 21.9688C82.8704 22.6139 81.5538 22.9034 80.2382 22.801C78.9225 22.6985 77.6667 22.2086 76.6292 21.3931L84.6295 35.6703C85.4291 37.0972 86.7627 38.1481 88.3371 38.5917C89.9114 39.0353 91.5975 38.8353 93.0244 38.0357C94.4513 37.2362 95.5022 35.9025 95.9458 34.3282C96.3894 32.7538 96.1894 31.0677 95.3899 29.6408L87.3895 15.3628C87.5433 16.6734 87.3055 18.0003 86.7061 19.1759C86.1068 20.3516 85.1726 21.3234 84.0216 21.9688Z" fill="white"/>
</mask>
<g mask="url(#mask1_60_39068)">
<path fill-rule="evenodd" clip-rule="evenodd" d="M71.7111 3.31372C72.1465 4.47903 72.3564 5.28464 72.9765 6.31146C74.5587 8.92832 80.8076 19.2674 91.7233 37.3288C89.071 37.6011 87.198 36.8948 86.1041 35.2098L70.3716 7.37748C69.6748 5.55898 70.1213 4.20439 71.7111 3.31372Z" fill="url(#paint6_linear_60_39068)"/>
</g>
<path fill-rule="evenodd" clip-rule="evenodd" d="M73.3022 1.60139C76.5688 1.9306 79.2487 3.71688 81.3418 6.96023C79.8125 2.7037 77.1326 0.917415 73.3022 1.60139Z" fill="url(#paint7_linear_60_39068)"/>
<path d="M116.684 3.91138V8.6632H110.755V34.9114H105.106V8.6632H99.1769V3.91138H116.684Z" fill="url(#paint8_linear_60_39068)"/>
<path d="M119.516 3.91138H125.165V34.9114H119.516V3.91138Z" fill="url(#paint9_linear_60_39068)"/>
<path d="M154.787 3.91138V34.9114H149.371V22.0588C149.371 19.0116 149.589 15.9493 150.025 12.872L144.796 26.9012H140.128L134.853 12.872C135.319 15.6778 135.553 18.7401 135.553 22.0588V34.9114H130.184V3.91138H136.16L142.462 21.1085L148.764 3.91138H154.787Z" fill="url(#paint10_linear_60_39068)"/>
<path d="M159.818 3.91138H175.177V8.6632H165.42V16.8544H173.87V21.6063H165.42V30.1596H175.177V34.9114H159.818V3.91138Z" fill="url(#paint11_linear_60_39068)"/>
<defs>
<linearGradient id="paint0_linear_60_39068" x1="-56.2222" y1="-10.7432" x2="1.33876" y2="71.6371" gradientUnits="userSpaceOnUse">
<stop stop-color="#9747FF"/>
<stop offset="0.763797" stop-color="#343090"/>
</linearGradient>
<linearGradient id="paint1_linear_60_39068" x1="-56.2222" y1="-10.7432" x2="1.33876" y2="71.6371" gradientUnits="userSpaceOnUse">
<stop stop-color="#9747FF"/>
<stop offset="0.763797" stop-color="#343090"/>
</linearGradient>
<linearGradient id="paint2_linear_60_39068" x1="-56.2222" y1="-10.7432" x2="1.33876" y2="71.6371" gradientUnits="userSpaceOnUse">
<stop stop-color="#9747FF"/>
<stop offset="0.763797" stop-color="#343090"/>
</linearGradient>
<linearGradient id="paint3_linear_60_39068" x1="78.2176" y1="-0.0325824" x2="77.5795" y2="22.8037" gradientUnits="userSpaceOnUse">
<stop stop-color="#9747FF"/>
<stop offset="0.972357" stop-color="#343090"/>
</linearGradient>
<linearGradient id="paint4_linear_60_39068" x1="71.2288" y1="6.32365" x2="81.1818" y2="22.4879" gradientUnits="userSpaceOnUse">
<stop stop-color="#E1CAFF"/>
<stop offset="1" stop-color="#4E4AB8"/>
</linearGradient>
<linearGradient id="paint5_linear_60_39068" x1="83.2587" y1="20.5901" x2="94.6838" y2="40.8115" gradientUnits="userSpaceOnUse">
<stop stop-color="white"/>
<stop offset="1" stop-color="#C8E4EC"/>
</linearGradient>
<linearGradient id="paint6_linear_60_39068" x1="80.8678" y1="22.7297" x2="89.4881" y2="37.3906" gradientUnits="userSpaceOnUse">
<stop stop-color="#F8F7FF" stop-opacity="0.38"/>
<stop offset="1" stop-color="#9747FF" stop-opacity="0"/>
</linearGradient>
<linearGradient id="paint7_linear_60_39068" x1="74.6385" y1="1.39889" x2="79.0431" y2="7.50237" gradientUnits="userSpaceOnUse">
<stop stop-color="white" stop-opacity="0.85"/>
<stop offset="1" stop-color="white" stop-opacity="0.13"/>
</linearGradient>
<linearGradient id="paint8_linear_60_39068" x1="34.4361" y1="-10.7432" x2="88.8084" y2="78.8639" gradientUnits="userSpaceOnUse">
<stop stop-color="#9747FF"/>
<stop offset="0.763797" stop-color="#343090"/>
</linearGradient>
<linearGradient id="paint9_linear_60_39068" x1="34.4361" y1="-10.7432" x2="88.8084" y2="78.8639" gradientUnits="userSpaceOnUse">
<stop stop-color="#9747FF"/>
<stop offset="0.763797" stop-color="#343090"/>
</linearGradient>
<linearGradient id="paint10_linear_60_39068" x1="34.4361" y1="-10.7432" x2="88.8084" y2="78.8639" gradientUnits="userSpaceOnUse">
<stop stop-color="#9747FF"/>
<stop offset="0.763797" stop-color="#343090"/>
</linearGradient>
<linearGradient id="paint11_linear_60_39068" x1="34.4361" y1="-10.7432" x2="88.8084" y2="78.8639" gradientUnits="userSpaceOnUse">
<stop stop-color="#9747FF"/>
<stop offset="0.763797" stop-color="#343090"/>
</linearGradient>
</defs>
</svg>
